<?xml version="1.0" encoding="UTF-8"?>
<svg width="160px" height="132px" viewBox="0 0 160 132" version="1.1" xmlns="http://www.w3.org/2000/svg" xmlns:xlink="http://www.w3.org/1999/xlink">
    <title>IC-HACKS</title>
    <defs>
        <radialGradient cx="50%" cy="46.1429317%" fx="50%" fy="46.1429317%" r="84.8437761%" gradientTransform="translate(0.500000,0.461429),scale(1.000000,0.785714),rotate(126.108656),scale(1.000000,0.964686),translate(-0.500000,-0.461429)" id="radialGradient-1">
            <stop stop-color="#6C099B" offset="0%"></stop>
            <stop stop-color="#4B1167" offset="100%"></stop>
        </radialGradient>
    </defs>
    <g id="Front-edn-test" stroke="none" stroke-width="1" fill="none" fill-rule="evenodd">
        <g id="Front-end-test-LVR-Result" transform="translate(-490.000000, -240.000000)">
            <g id="IC-HACKS" transform="translate(490.000000, 240.000000)">
                <path d="M114.306147,12.9944263 L92.2054712,59.4034263 L135.401346,59.4038637 L73.5220961,131.12754 L73.5214712,84.7174263 L42.5824712,84.7181023 L76.7366026,12.9944263 L114.306147,12.9944263 Z" id="Combined-Shape" fill="#FEC10E"></path>
                <path d="M114.306147,8.79442604 L92.2054712,55.203426 L135.401346,55.2038634 L73.5220961,126.927539 L69.4444712,80.517426 L42.5824712,80.518102 L72.5366023,8.79442604 L114.306147,8.79442604 Z" id="Combined-Shape" fill="#DE026A"></path>
                <path d="M114.306147,8.79442604 L92.2054712,55.203426 L135.401346,55.2038634 L73.5220961,126.927539 L73.5214712,80.517426 L42.5824712,80.518102 L76.7366026,8.79442604 L114.306147,8.79442604 Z" id="Combined-Shape-Copy" fill="url(#radialGradient-1)"></path>
                <path d="M56.7216149,126.927539 L56.7216149,123.998859 C60.1271179,123.53491 62.2713234,121.273156 62.2713234,118.170495 C62.2713234,114.862536 60.0027539,113.542553 57.6509146,112.652563 L57.4974382,112.595113 C57.3438886,112.538242 57.1901869,112.483055 57.0369393,112.429121 L54.5774094,111.559216 C53.2530471,111.095266 53.0953849,110.225361 53.0953849,109.732415 C53.0953849,108.688529 53.8206309,107.934611 55.1134608,107.934611 C56.4062906,107.934611 57.3207312,108.746523 57.3207312,110.05138 L57.3207312,110.631317 L61.8298693,110.631317 L61.8298693,110.196365 C61.8298693,107.180694 59.8117935,105.121918 56.7216149,104.599975 L56.7216149,101.613301 L53.4737741,101.613301 L53.4737741,104.599975 C50.3835955,105.208909 48.6493116,107.470662 48.6493116,110.022384 C48.6493116,112.777083 50.415128,114.487896 53.3476444,115.531783 L56.3747581,116.604665 C57.4783934,117.010621 57.7937177,117.793536 57.7937177,118.605447 C57.7937177,119.765321 56.9108095,120.606229 55.2395905,120.606229 C53.6629688,120.606229 52.7169957,119.881308 52.7169957,118.48946 L52.7169957,117.648552 L48.2078576,117.648552 L48.2078576,118.344476 C48.2078576,121.33115 50.2889982,123.360928 53.4737741,123.911868 L53.4737741,126.927539 L56.7216149,126.927539 Z" id="$" fill="#B20858" fill-rule="nonzero" transform="translate(55.239590, 114.270420) rotate(-18.000000) translate(-55.239590, -114.270420) "></path>
                <path d="M20.4551204,97.6925492 L20.4551204,92.811415 C26.2444754,92.038166 29.8896249,88.2685772 29.8896249,83.0974746 C29.8896249,77.5842094 26.0330567,75.3842387 22.0349299,73.9009214 L21.7740199,73.8051726 C21.5129857,73.7103866 21.2516928,73.6184087 20.9911718,73.5285185 L16.8099709,72.0786766 C14.5585551,71.3054276 14.2905294,69.8555858 14.2905294,69.0340088 C14.2905294,67.2941985 15.5234476,66.0376689 17.7212583,66.0376689 C19.919069,66.0376689 21.473618,67.3908547 21.473618,69.5656174 L21.473618,70.5321787 L29.1391529,70.5321787 L29.1391529,69.8072577 C29.1391529,64.7811393 25.708424,61.349847 20.4551204,60.4799419 L20.4551204,55.5021516 L14.9337911,55.5021516 L14.9337911,60.4799419 C9.68048746,61.4948312 6.73220481,65.26442 6.73220481,69.5172894 C6.73220481,74.1084552 9.7340926,76.9598108 14.7193705,78.699621 L19.8654639,80.4877593 C21.7416437,81.1643522 22.2776951,82.4692098 22.2776951,83.8223956 C22.2776951,85.755518 20.7767512,87.1570318 17.9356789,87.1570318 C15.2554219,87.1570318 13.6472677,85.9488303 13.6472677,83.6290833 L13.6472677,82.2275695 L5.98173287,82.2275695 L5.98173287,83.387443 C5.98173287,88.3652333 9.51967204,91.7481976 14.9337911,92.6664308 L14.9337911,97.6925492 L20.4551204,97.6925492 Z" id="$-copy" fill="#F80C7C" fill-rule="nonzero" transform="translate(17.935679, 76.597350) rotate(-18.000000) translate(-17.935679, -76.597350) "></path>
                <path d="M109.904219,125.521193 L109.904219,121.77899 C114.331373,121.186166 117.11884,118.296148 117.11884,114.331636 C117.11884,110.104799 114.1697,108.418155 111.112309,107.280945 L110.91279,107.207537 C110.713175,107.134868 110.513363,107.064352 110.314141,106.995436 L107.116752,105.883891 C105.395081,105.291066 105.19012,104.179521 105.19012,103.549645 C105.19012,102.215791 106.13294,101.252451 107.813619,101.252451 C109.494298,101.252451 110.68307,102.289894 110.68307,103.957212 L110.68307,104.698242 L116.54495,104.698242 L116.54495,104.142469 C116.54495,100.289112 113.921451,97.6584545 109.904219,96.9915272 L109.904219,93.1752213 L105.682026,93.1752213 L105.682026,96.9915272 C101.664794,97.769609 99.410225,100.659627 99.410225,103.92016 C99.410225,107.440054 101.705786,109.626093 105.518058,110.959948 L109.453305,112.330854 C110.888031,112.849575 111.297953,113.849966 111.297953,114.887408 C111.297953,116.369469 110.150172,117.443963 107.977588,117.443963 C105.927979,117.443963 104.698214,116.517675 104.698214,114.739202 L104.698214,113.664708 L98.8363347,113.664708 L98.8363347,114.553945 C98.8363347,118.370251 101.541818,120.963857 105.682026,121.667835 L105.682026,125.521193 L109.904219,125.521193 Z" id="$-copy-2" fill="#E2066E" fill-rule="nonzero" transform="translate(107.977588, 109.348207) rotate(52.000000) translate(-107.977588, -109.348207) "></path>
                <path d="M114.640391,46.7657839 L114.640391,44.6506258 C117.024243,44.3155512 118.525187,42.6820627 118.525187,40.4412516 C118.525187,38.05217 116.937188,37.0988494 115.290901,36.4560785 L115.183467,36.4145874 C115.075983,36.3735135 114.968391,36.3336564 114.861118,36.2947039 L113.139447,35.6664391 C112.212394,35.3313646 112.10203,34.7030998 112.10203,34.3470831 C112.10203,33.5931653 112.609702,33.0486691 113.514683,33.0486691 C114.419664,33.0486691 115.059772,33.6350496 115.059772,34.5774468 L115.059772,34.99629 L118.216169,34.99629 L118.216169,34.6821576 C118.216169,32.504173 116.803516,31.0172796 114.640391,30.6403207 L114.640391,28.4832783 L112.366902,28.4832783 L112.366902,30.6403207 C110.203777,31.0801061 108.989779,32.7135946 108.989779,34.5565047 C108.989779,36.5460099 110.22585,37.7815973 112.278612,38.5355151 L114.397591,39.310375 C115.170136,39.6035652 115.390863,40.1690035 115.390863,40.755384 C115.390863,41.5930704 114.772827,42.200393 113.602974,42.200393 C112.499339,42.200393 111.837158,41.676839 111.837158,40.6716154 L111.837158,40.0642927 L108.680761,40.0642927 L108.680761,40.5669046 C108.680761,42.723947 110.137559,44.1898982 112.366902,44.5877993 L112.366902,46.7657839 L114.640391,46.7657839 Z" id="$-copy-3" fill="#DE026A" fill-rule="nonzero" transform="translate(113.602974, 37.624531) rotate(27.000000) translate(-113.602974, -37.624531) "></path>
                <path d="M150.095461,24.2642385 L150.095461,21.6609669 C153.160413,21.2485675 155.090198,19.2381201 155.090198,16.4801987 C155.090198,13.5397906 153.048486,12.3664729 150.93183,11.5753703 L150.793702,11.5243044 C150.655507,11.4737518 150.517175,11.4246969 150.379252,11.3767555 L148.165676,10.6035065 C146.97375,10.191107 146.831854,9.41785804 146.831854,8.97968361 C146.831854,8.05178483 147.484575,7.38163571 148.648122,7.38163571 C149.811669,7.38163571 150.634665,8.10333476 150.634665,9.26320824 L150.634665,9.77870756 L154.69289,9.77870756 L154.69289,9.39208307 C154.69289,6.7114866 152.876621,4.881464 150.095461,4.41751461 L150.095461,1.7626931 L147.172404,1.7626931 L147.172404,4.41751461 C144.391243,4.9587889 142.830388,6.96923626 142.830388,9.23743327 C142.830388,11.6860551 144.419622,13.2067781 147.058887,14.1346768 L149.783289,15.0883506 C150.776561,15.4492001 151.060353,16.1451242 151.060353,16.8668232 C151.060353,17.8978219 150.265736,18.6452959 148.761639,18.6452959 C147.342679,18.6452959 146.491303,18.0009217 146.491303,16.7637234 L146.491303,16.0162494 L142.433079,16.0162494 L142.433079,16.6348485 C142.433079,19.2896701 144.306106,21.0939177 147.172404,21.583642 L147.172404,24.2642385 L150.095461,24.2642385 Z" id="$-copy-4" fill="#DE026A" fill-rule="nonzero" transform="translate(148.761639, 13.013466) rotate(27.000000) translate(-148.761639, -13.013466) "></path>
                <path d="M43.8540351,33.4466406 L43.8540351,31.9823003 C45.5567866,31.7503257 46.6288894,30.619449 46.6288894,29.0681182 C46.6288894,27.4141387 45.4946046,26.7541475 44.3186849,26.3091523 L44.2419467,26.2804276 C44.1651719,26.2519918 44.0883211,26.2243985 44.0116973,26.1974314 L42.7819323,25.7624788 C42.1197512,25.5305041 42.0409201,25.0955516 42.0409201,24.8490785 C42.0409201,24.3271354 42.4035431,23.9501765 43.049958,23.9501765 C43.6963729,23.9501765 44.1535932,24.3561323 44.1535932,25.0085611 L44.1535932,25.2985295 L46.4081623,25.2985295 L46.4081623,25.0810532 C46.4081623,23.5732177 45.3991244,22.5438299 43.8540351,22.2828584 L43.8540351,20.7895213 L42.2301147,20.7895213 L42.2301147,22.2828584 C40.6850254,22.5873252 39.8178835,23.7182018 39.8178835,24.9940627 C39.8178835,26.3714124 40.7007916,27.2268191 42.1670498,27.7487622 L43.6806067,28.2852036 C44.2324243,28.4881815 44.3900865,28.8796388 44.3900865,29.2855945 C44.3900865,29.8655313 43.9486324,30.2859854 43.1130229,30.2859854 C42.324712,30.2859854 41.8517255,29.9235249 41.8517255,29.2276008 L41.8517255,28.8071467 L39.5971564,28.8071467 L39.5971564,29.1551088 C39.5971564,30.6484459 40.6377268,31.6633351 42.2301147,31.9388051 L42.2301147,33.4466406 L43.8540351,33.4466406 Z" id="$-copy-5" fill="#DE026A" fill-rule="nonzero" transform="translate(43.113023, 27.118081) rotate(-28.000000) translate(-43.113023, -27.118081) "></path>
            </g>
        </g>
    </g>
</svg>